<svg width="1024" height="1024" fill="none" xmlns="http://www.w3.org/2000/svg"><g clip-path="url(#a)"><rect width="1024" height="1024" rx="109.911" transform="matrix(-1 0 0 1 1024 0)" fill="url(#b)"/><g filter="url(#c)"><path d="M379.23 534.898 335.147 411.01c-4.365-12.266 4.472-25.277 17.036-24.87 228.248 7.395 345.652 85.611 334.965 320.907-38.029-160.793-220.426-172.149-307.918-172.149Z" fill="#58E5BB"/></g><g filter="url(#d)"><path d="m320.282 333.073-46.147-120.72c-4.714-12.331 4.12-25.707 16.874-25.58 231.274 2.311 394.185 11.384 394.185 316.499-38.03-160.793-277.42-170.199-364.912-170.199Z" fill="#58E5BB"/></g><g filter="url(#e)"><path d="m439.681 743.181-46.89-131.445c-4.352-12.201 4.392-25.177 16.895-24.772 187.998 6.086 282.319 81.956 271.709 315.569-38.029-160.793-153.592-159.352-241.714-159.352Z" fill="#58E5BB"/></g></g><defs><filter id="c" x="334.018" y="386.131" width="353.801" height="328.243" filterUnits="userSpaceOnUse" color-interpolation-filters="sRGB"><feFlood flood-opacity="0" result="BackgroundImageFix"/><feBlend in="SourceGraphic" in2="BackgroundImageFix" result="shape"/><feColorMatrix in="SourceAlpha" values="0 0 0 0 0 0 0 0 0 0 0 0 0 0 0 0 0 0 127 0" result="hardAlpha"/><feOffset dy="7.327"/><feGaussianBlur stdDeviation="3.664"/><feComposite in2="hardAlpha" operator="arithmetic" k2="-1" k3="1"/><feColorMatrix values="0 0 0 0 0 0 0 0 0 0 0 0 0 0 0 0 0 0 0.25 0"/><feBlend in2="shape" result="effect1_innerShadow_534_56"/></filter><filter id="d" x="272.85" y="186.771" width="412.344" height="323.827" filterUnits="userSpaceOnUse" color-interpolation-filters="sRGB"><feFlood flood-opacity="0" result="BackgroundImageFix"/><feBlend in="SourceGraphic" in2="BackgroundImageFix" result="shape"/><feColorMatrix in="SourceAlpha" values="0 0 0 0 0 0 0 0 0 0 0 0 0 0 0 0 0 0 127 0" result="hardAlpha"/><feOffset dy="7.327"/><feGaussianBlur stdDeviation="3.664"/><feComposite in2="hardAlpha" operator="arithmetic" k2="-1" k3="1"/><feColorMatrix values="0 0 0 0 0 0 0 0 0 0 0 0 0 0 0 0 0 0 0.25 0"/><feBlend in2="shape" result="effect1_innerShadow_534_56"/></filter><filter id="e" x="391.658" y="586.955" width="290.543" height="322.905" filterUnits="userSpaceOnUse" color-interpolation-filters="sRGB"><feFlood flood-opacity="0" result="BackgroundImageFix"/><feBlend in="SourceGraphic" in2="BackgroundImageFix" result="shape"/><feColorMatrix in="SourceAlpha" values="0 0 0 0 0 0 0 0 0 0 0 0 0 0 0 0 0 0 127 0" result="hardAlpha"/><feOffset dy="7.327"/><feGaussianBlur stdDeviation="3.664"/><feComposite in2="hardAlpha" operator="arithmetic" k2="-1" k3="1"/><feColorMatrix values="0 0 0 0 0 0 0 0 0 0 0 0 0 0 0 0 0 0 0.25 0"/><feBlend in2="shape" result="effect1_innerShadow_534_56"/></filter><linearGradient id="b" x1="1024" y1="50.376" x2="512" y2="1024" gradientUnits="userSpaceOnUse"><stop offset=".462" stop-color="#0F1010"/><stop offset="1" stop-color="#1E1F1F"/></linearGradient><clipPath id="a"><rect width="1024" height="1024" rx="109.911" transform="matrix(-1 0 0 1 1024 0)" fill="#fff"/></clipPath></defs></svg>